<svg height="512pt" viewBox="-97 0 512 512.00001" width="512pt" xmlns="http://www.w3.org/2000/svg"><path d="m309.566406 48.371094c0-15.078125-10.984375-27.90625-25.882812-30.203125-28.835938-4.445313-77.660156-10.667969-125.148438-10.667969-44.535156 0-95.101562 6.386719-124.96875 10.839844-14.976562 2.234375-26.066406 15.085937-26.066406 30.230468v355.328126c0 4.601562 3.085938 8.636718 7.53125 9.835937l26.609375 7.179687v27.769532c0 5.625 4.558594 10.183594 10.1875 10.183594h213.410156c5.628907 0 10.1875-4.558594 10.1875-10.183594v-27.773438l26.605469-7.175781c4.445312-1.199219 7.535156-5.234375 7.535156-9.835937zm0 0" fill="#c1dbd6"/><path d="m279.335938 46.359375c-25.027344-3.859375-74-10.335937-120.804688-10.335937-43.675781 0-94.421875 6.601562-120.769531 10.53125-1 .152343-1.738281 1.007812-1.738281 2.015624v341.28125l34.140624 9.210938v31.28125h29.382813v63.96875c0 5.625 4.5625 10.1875 10.1875 10.1875h5.839844c5.628906 0 10.1875-4.5625 10.1875-10.1875v-63.96875h65.542969v63.96875c0 5.625 4.558593 10.1875 10.183593 10.1875h5.839844c5.628906 0 10.1875-4.5625 10.1875-10.1875v-63.96875h29.386719v-31.28125l34.140625-9.210938v-341.480468c0-1.015625-.71875-1.859375-1.707031-2.011719zm0 0" fill="#d9efec"/><path d="m281.046875 148.472656v241.382813l-34.148437 9.207031v31.285156h-29.378907v63.964844c0 5.628906-4.5625 10.1875-10.1875 10.1875h-5.835937c-5.628906 0-10.1875-4.558594-10.1875-10.1875v-63.964844h-65.546875v63.964844c0 5.628906-4.558594 10.1875-10.1875 10.1875h-5.835938c-5.625 0-10.1875-4.558594-10.1875-10.1875v-63.964844h-29.378906v-31.285156l-34.148437-9.207031v-241.382813zm0 0" fill="#f55"/><path d="m281.046875 148.472656v241.382813l-34.148437 9.207031v31.285156h-29.378907v63.964844c0 5.628906-4.5625 10.1875-10.1875 10.1875h-5.835937c-5.628906 0-10.1875-4.558594-10.1875-10.1875v-63.964844h-14.363282c79.734376-68.070312 64.789063-230.925781 57.863282-281.875zm0 0" fill="#f72b2b"/><path d="m36.019531 196.058594h245.027344v141.890625h-245.027344zm0 0" fill="#a0ecff"/><path d="m281.046875 196.058594v141.890625h-52.027344c12.429688-48.308594 12.878907-101.710938 10.421875-141.890625zm0 0" fill="#60daff"/><path d="m181.335938 232.800781h25.074218v68.402344h-25.074218zm0 0" fill="#38aaff"/><path d="m227.691406 232.800781h25.074219v68.402344h-25.074219zm0 0" fill="#38aaff"/><path d="m309.566406 101.128906c4.144532 0 7.5-3.359375 7.5-7.5v-45.257812c0-18.914063-13.558594-34.734375-32.242187-37.617188-31.816407-4.90625-79.554688-10.753906-126.289063-10.753906-43.691406 0-92.675781 5.941406-126.074218 10.921875-18.507813 2.761719-32.460938 18.945313-32.460938 37.648437v355.328126c0 7.976562 5.378906 15 13.078125 17.078124l21.0625 5.679688v22.023438c0 9.753906 7.933594 17.6875 17.6875 17.6875h40.222656v27.945312c0 9.753906 7.933594 17.6875 17.6875 17.6875h5.839844c9.753906 0 17.6875-7.933594 17.6875-17.6875v-27.945312h50.539063v27.945312c0 9.753906 7.9375 17.6875 17.6875 17.6875h5.839843c9.753907 0 17.691407-7.933594 17.691407-17.6875v-27.945312h40.222656c9.75 0 17.6875-7.933594 17.6875-17.6875v-22.023438l21.058594-5.679688c7.699218-2.078124 13.078124-9.101562 13.078124-17.078124v-276.09375c0-4.140626-3.355468-7.5-7.5-7.5-4.140624 0-7.5 3.359374-7.5 7.5v276.09375c0 1.210937-.816406 2.277343-1.984374 2.59375l-26.605469 7.179687c-3.273438.882813-5.546875 3.851563-5.546875 7.238281v27.769532c0 1.484374-1.207032 2.6875-2.6875 2.6875h-40.222656v-13.523438h21.882812c4.144531 0 7.5-3.359375 7.5-7.5v-25.535156l28.597656-7.714844c3.269532-.882812 5.542969-3.851562 5.542969-7.242188v-341.480468c0-4.742188-3.390625-8.703125-8.0625-9.425782-25.238281-3.890624-74.644531-10.421874-121.945313-10.421874-44.160156 0-95.316406 6.652343-121.875 10.613281-4.636718.691406-8.132812 4.746093-8.132812 9.433593v162.054688c0 4.140625 3.355469 7.5 7.5 7.5 4.140625 0 7.5-3.359375 7.5-7.5v-7.066406h230.019531v126.886718h-230.027343v-85.644531c0-4.140625-3.355469-7.5-7.5-7.5-4.140626 0-7.5 3.359375-7.5 7.5v145.050781c0 3.390626 2.273437 6.359376 5.546874 7.242188l28.59375 7.710938v25.539062c0 4.140625 3.355469 7.5 7.5 7.5h21.886719v13.523438h-40.222656c-1.484375 0-2.6875-1.207032-2.6875-2.6875v-27.769532c0-3.386718-2.273437-6.355468-5.546875-7.238281l-26.609375-7.179687c-1.167969-.316407-1.984375-1.382813-1.984375-2.59375v-355.328126c0-11.515624 8.273438-21.109374 19.675781-22.8125 26.929688-4.015624 78.832031-10.757812 123.859375-10.757812 45.785156 0 92.703125 5.753906 124.003906 10.578125 11.316407 1.746094 19.527344 11.332031 19.527344 22.792969v45.257812c0 4.140625 3.359375 7.5 7.5 7.5zm-176.304687 350.238282v-13.523438h50.539062v13.523438zm-89.738281-262.8125v-32.652344c41.945312-.390625 84.617187-.375 126.980468.066406h.078125c4.105469 0 7.457031-3.308594 7.5-7.421875.042969-4.144531-3.28125-7.535156-7.421875-7.578125-42.414062-.441406-85.136718-.460938-127.136718-.066406v-87.613282c27.15625-3.9375 74.253906-9.765624 115.011718-9.765624 43.5625 0 89.105469 5.683593 115.007813 9.542968v87.761719c-18.390625-.316406-37.613281-.269531-56.089844.144531-4.140625.09375-7.421875 3.523438-7.328125 7.664063.089844 4.085937 3.429688 7.332031 7.496094 7.332031h.167968c18.371094-.410156 37.484376-.453125 55.753907-.140625v32.730469h-230.019531zm34.140624 234.289062v-23.78125c0-3.390625-2.273437-6.355469-5.546874-7.238281l-28.59375-7.714844v-38.664063h230.019531v38.664063l-28.59375 7.714844c-3.273438.882812-5.546875 3.851562-5.546875 7.238281v23.78125h-21.882813c-4.144531 0-7.5 3.359375-7.5 7.5v63.96875c0 1.480469-1.207031 2.6875-2.691406 2.6875h-5.839844c-1.480469 0-2.6875-1.207031-2.6875-2.6875v-63.96875c0-4.140625-3.355469-7.5-7.5-7.5h-65.539062c-4.140625 0-7.5 3.359375-7.5 7.5v63.96875c0 1.480469-1.207031 2.6875-2.6875 2.6875h-5.839844c-1.480469 0-2.6875-1.207031-2.6875-2.6875v-63.96875c0-4.140625-3.359375-7.5-7.5-7.5zm0 0"/><path d="m74.890625 225.300781c-4.144531 0-7.5 3.355469-7.5 7.5v3.089844h-3.089844c-4.144531 0-7.5 3.355469-7.5 7.5 0 4.140625 3.355469 7.5 7.5 7.5h3.089844v3.089844c0 4.140625 3.355469 7.5 7.5 7.5s7.5-3.359375 7.5-7.5v-3.089844h3.089844c4.144531 0 7.5-3.359375 7.5-7.5 0-4.144531-3.355469-7.5-7.5-7.5h-3.089844v-3.089844c0-4.144531-3.355469-7.5-7.5-7.5zm0 0"/><path d="m111.742188 240.300781h17.1875c4.144531 0 7.5-3.359375 7.5-7.5 0-4.144531-3.355469-7.5-7.5-7.5h-17.1875c-4.144532 0-7.5 3.355469-7.5 7.5 0 4.140625 3.355468 7.5 7.5 7.5zm0 0"/><path d="m111.742188 260.558594h42.359374c4.144532 0 7.5-3.359375 7.5-7.5s-3.355468-7.5-7.5-7.5h-42.359374c-4.144532 0-7.5 3.359375-7.5 7.5s3.355468 7.5 7.5 7.5zm0 0"/><path d="m64.300781 287.773438h93.484375c4.140625 0 7.5-3.355469 7.5-7.5 0-4.140626-3.359375-7.5-7.5-7.5h-93.484375c-4.144531 0-7.5 3.359374-7.5 7.5 0 4.144531 3.359375 7.5 7.5 7.5zm0 0"/><path d="m64.300781 308.699219h93.484375c4.140625 0 7.5-3.355469 7.5-7.5 0-4.140625-3.359375-7.5-7.5-7.5h-93.484375c-4.144531 0-7.5 3.359375-7.5 7.5 0 4.144531 3.359375 7.5 7.5 7.5zm0 0"/><path d="m206.414062 308.699219c4.140626 0 7.5-3.355469 7.5-7.5v-68.398438c0-4.144531-3.359374-7.5-7.5-7.5h-25.074218c-4.144532 0-7.5 3.355469-7.5 7.5v68.398438c0 4.144531 3.355468 7.5 7.5 7.5zm-17.578124-68.398438h10.074218v53.398438h-10.074218zm0 0"/><path d="m252.765625 308.699219c4.144531 0 7.5-3.355469 7.5-7.5v-68.398438c0-4.144531-3.355469-7.5-7.5-7.5h-25.074219c-4.140625 0-7.5 3.355469-7.5 7.5v68.398438c0 4.144531 3.359375 7.5 7.5 7.5zm-17.574219-68.398438h10.074219v53.398438h-10.074219zm0 0"/></svg>